<svg xmlns="http://www.w3.org/2000/svg" version="1.1" xmlns:xlink="http://www.w3.org/1999/xlink" xmlns:svgjs="http://svgjs.dev/svgjs" width="1000" height="520" viewBox="0 0 1000 520"><g transform="matrix(1,0,0,1,-0.6060605516200894,-0.6252725439944129)"><svg viewBox="0 0 396 206" data-background-color="#cf5260" preserveAspectRatio="xMidYMid meet" height="520" width="1000" xmlns="http://www.w3.org/2000/svg" xmlns:xlink="http://www.w3.org/1999/xlink"><defs></defs><g id="tight-bounds" transform="matrix(1,0,0,1,0.24000002155844413,0.2477041231977779)"><svg viewBox="0 0 395.52 205.50459175360444" height="205.50459175360444" width="395.52"><g><svg viewBox="0 0 395.52 205.50459175360444" height="205.50459175360444" width="395.52"><g transform="matrix(1,0,0,1,0,151.80460431203605)"><svg viewBox="0 0 395.52 53.6999874415684" height="53.6999874415684" width="395.52"><g><svg viewBox="0 0 395.52 53.6999874415684" height="53.6999874415684" width="395.52"><g><svg viewBox="0 0 395.52 53.6999874415684" height="53.6999874415684" width="395.52"><g transform="matrix(1,0,0,1,0,0)"><svg width="395.52" viewBox="-1.5399999618530273 -36.25 349.9300231933594 47.5" height="53.6999874415684" data-palette-color="#f0f0f0"><g class="undefined-text-0" data-fill-palette-color="primary" id="text-0"><path d="M0.05 11.25L-1.54 8.76Q0.78 7.28 2.14 5.66 3.49 4.05 4.19 2.27 4.88 0.49 5.08-1.49 5.27-3.47 5.27-5.66L5.27-5.66 5.27-35.77 10.06-35.77 10.06-7.2Q10.06-4.35 9.67-1.71 9.28 0.93 8.19 3.28 7.1 5.64 5.15 7.65 3.2 9.67 0.05 11.25L0.05 11.25ZM20.46-35.77L25.24-35.77 25.24-13.55Q25.24-10.89 26.12-8.95 27-7.01 28.4-5.75 29.81-4.49 31.54-3.89 33.27-3.3 35.01-3.3L35.01-3.3Q36.77-3.3 38.35-3.92 39.94-4.54 41.12-5.77 42.31-7.01 43.02-8.85 43.72-10.69 43.72-13.16L43.72-13.16 43.72-35.77 48.12-35.77 48.12-13.21Q48.12-11.72 47.75-10.12 47.39-8.52 46.64-7.01 45.9-5.49 44.75-4.13 43.6-2.76 42.04-1.73 40.48-0.71 38.47-0.11 36.47 0.49 34.01 0.49L34.01 0.49Q31 0.49 28.51-0.45 26.02-1.39 24.23-3.19 22.43-4.98 21.45-7.6 20.46-10.23 20.46-13.57L20.46-13.57 20.46-35.77ZM68.01-3.3L68.01-3.3Q69.62-3.3 70.99-3.72 72.36-4.15 73.33-4.94 74.31-5.74 74.86-6.84 75.41-7.93 75.41-9.28L75.41-9.28Q75.41-10.86 74.67-11.96 73.92-13.06 72.71-13.89 71.5-14.72 69.94-15.37 68.38-16.02 66.77-16.69 65.16-17.36 63.59-18.14 62.03-18.92 60.82-20.04 59.61-21.17 58.87-22.69 58.12-24.22 58.12-26.39L58.12-26.39Q58.12-28.69 59-30.52 59.88-32.35 61.46-33.63 63.03-34.91 65.19-35.58 67.35-36.25 69.94-36.25L69.94-36.25Q71.53-36.25 73.92-35.95 76.31-35.64 79-34.84L79-34.84 78.19-30.59 77.7-30.35Q76.36-30.96 75.09-31.37 73.82-31.79 72.7-32.03 71.58-32.28 70.62-32.37 69.67-32.47 68.96-32.47L68.96-32.47Q67.52-32.47 66.36-32.12 65.2-31.76 64.39-31.09 63.57-30.42 63.12-29.46 62.67-28.49 62.67-27.27L62.67-27.27Q62.67-25.63 63.41-24.49 64.16-23.34 65.39-22.46 66.62-21.58 68.18-20.9 69.75-20.21 71.37-19.53 72.99-18.85 74.56-18.07 76.12-17.29 77.35-16.25 78.58-15.21 79.33-13.79 80.07-12.38 80.07-10.4L80.07-10.4Q80.07-8.23 79.13-6.26 78.19-4.3 76.5-2.8 74.8-1.29 72.42-0.4 70.04 0.49 67.16 0.49L67.16 0.49Q65.94 0.49 64.61 0.32 63.28 0.15 61.93-0.16 60.59-0.46 59.28-0.9 57.98-1.34 56.81-1.88L56.81-1.88 57.64-6.15 58.12-6.4Q60.62-4.96 63.17-4.13 65.72-3.3 68.01-3.3ZM101.63-31.98L101.63 0 96.84 0 96.84-31.98 84.98-31.98 85.71-35.77 113.98-35.77 113.25-31.98 101.63-31.98Z" fill="#f0f0f0" data-fill-palette-color="primary"></path><path d="M124.09 0L119.3 0 119.3-35.77 140.27-35.77 139.54-31.98 124.09-31.98 124.09-20.56 137.86-20.56 137.12-16.77 124.09-16.77 124.09 0ZM164.37-3.3L164.37-3.3Q167.18-3.3 169.51-4.42 171.84-5.54 173.52-7.51 175.21-9.47 176.14-12.11 177.06-14.75 177.06-17.8L177.06-17.8Q177.06-21 176.05-23.69 175.04-26.39 173.27-28.34 171.5-30.3 169.12-31.38 166.74-32.47 164-32.47L164-32.47Q161.15-32.47 158.81-31.31 156.48-30.15 154.82-28.17 153.16-26.2 152.25-23.55 151.33-20.9 151.33-17.9L151.33-17.9Q151.33-14.7 152.33-12.02 153.33-9.35 155.09-7.41 156.85-5.47 159.23-4.38 161.61-3.3 164.37-3.3ZM163.54 0.49L163.54 0.49Q160.12 0.49 157-0.73 153.87-1.95 151.49-4.22 149.11-6.49 147.71-9.73 146.3-12.96 146.3-16.99L146.3-16.99Q146.3-19.78 147-22.28 147.69-24.78 148.94-26.92 150.18-29.05 151.9-30.79 153.63-32.52 155.7-33.73 157.78-34.94 160.11-35.6 162.44-36.25 164.93-36.25L164.93-36.25Q167.15-36.25 169.29-35.72 171.42-35.18 173.34-34.16 175.26-33.13 176.86-31.62 178.46-30.1 179.63-28.17 180.8-26.25 181.45-23.89 182.09-21.53 182.09-18.8L182.09-18.8Q182.09-16.04 181.42-13.53 180.75-11.01 179.52-8.87 178.28-6.74 176.59-5 174.89-3.27 172.83-2.05 170.76-0.83 168.41-0.17 166.05 0.49 163.54 0.49ZM202.38-14.26L195.81-14.26 195.81 0 191.03 0 191.03-35.77 201.13-35.77Q203.77-35.77 205.97-35.03 208.16-34.3 209.73-33.02 211.29-31.74 212.16-30 213.02-28.27 213.02-26.27L213.02-26.27Q213.02-24.51 212.39-22.99 211.75-21.46 210.73-20.18 209.7-18.9 208.4-17.87 207.09-16.85 205.77-16.09L205.77-16.09 216.29 0 210.56 0 202.38-14.26ZM195.81-31.98L195.81-18.04 203.75-18.04Q204.77-18.6 205.59-19.41 206.41-20.21 206.97-21.18 207.53-22.14 207.83-23.22 208.14-24.29 208.14-25.42L208.14-25.42Q208.14-26.81 207.65-28.02 207.16-29.22 206.17-30.1 205.19-30.98 203.7-31.48 202.21-31.98 200.21-31.98L200.21-31.98 195.81-31.98Z" fill="#f0f0f0" data-fill-palette-color="primary"></path><path d="M226.4 0L221.61 0 221.61-35.77 242.58-35.77 241.85-31.98 226.4-31.98 226.4-20.56 240.17-20.56 239.43-16.77 226.4-16.77 226.4 0ZM273.61 0L270.22-9.72 254.79-9.72 251.44 0 246.93 0 260.23-35.77 265.31-35.77 278.64 0 273.61 0ZM256.08-13.45L268.88-13.45 264.14-27.42 262.75-32.4 262.26-32.4 260.87-27.42 256.08-13.45ZM290.02 0L285.65 0 285.65-35.77 292.6-35.77 309.47-11.35 311.91-6.96 312.4-6.96 312.06-11.94 312.06-35.77 316.43-35.77 316.43 0 312.38 0 292.36-28.81 290.16-33.06 289.67-33.06 290.02-28.08 290.02 0ZM336.33-3.3L336.33-3.3Q337.94-3.3 339.3-3.72 340.67-4.15 341.65-4.94 342.63-5.74 343.17-6.84 343.72-7.93 343.72-9.28L343.72-9.28Q343.72-10.86 342.98-11.96 342.23-13.06 341.03-13.89 339.82-14.72 338.26-15.37 336.69-16.02 335.08-16.69 333.47-17.36 331.91-18.14 330.35-18.92 329.14-20.04 327.93-21.17 327.18-22.69 326.44-24.22 326.44-26.39L326.44-26.39Q326.44-28.69 327.32-30.52 328.2-32.35 329.77-33.63 331.35-34.91 333.51-35.58 335.67-36.25 338.26-36.25L338.26-36.25Q339.84-36.25 342.23-35.95 344.63-35.64 347.31-34.84L347.31-34.84 346.51-30.59 346.02-30.35Q344.68-30.96 343.41-31.37 342.14-31.79 341.01-32.03 339.89-32.28 338.94-32.37 337.99-32.47 337.28-32.47L337.28-32.47Q335.84-32.47 334.68-32.12 333.52-31.76 332.7-31.09 331.88-30.42 331.43-29.46 330.98-28.49 330.98-27.27L330.98-27.27Q330.98-25.63 331.72-24.49 332.47-23.34 333.7-22.46 334.93-21.58 336.5-20.9 338.06-20.21 339.68-19.53 341.31-18.85 342.87-18.07 344.43-17.29 345.66-16.25 346.9-15.21 347.64-13.79 348.39-12.38 348.39-10.4L348.39-10.4Q348.39-8.23 347.45-6.26 346.51-4.3 344.81-2.8 343.11-1.29 340.73-0.4 338.35 0.49 335.47 0.49L335.47 0.49Q334.25 0.49 332.92 0.32 331.59 0.15 330.25-0.16 328.9-0.46 327.6-0.9 326.29-1.34 325.12-1.88L325.12-1.88 325.95-6.15 326.44-6.4Q328.93-4.96 331.48-4.13 334.03-3.3 336.33-3.3Z" fill="#f0f0f0" data-fill-palette-color="primary"></path></g></svg></g></svg></g></svg></g></svg></g><g transform="matrix(1,0,0,1,134.53497607923765,0)"><svg viewBox="0 0 126.45004784152465 126.45004784152465" height="126.45004784152465" width="126.45004784152465"><g><svg></svg></g><g id="icon-0"><svg viewBox="0 0 126.45004784152465 126.45004784152465" height="126.45004784152465" width="126.45004784152465"><g><path d="M0 63.225c0-34.918 28.307-63.225 63.225-63.225 34.918 0 63.225 28.307 63.225 63.225 0 34.918-28.307 63.225-63.225 63.225-34.918 0-63.225-28.307-63.225-63.225zM63.225 121.607c32.244 0 58.382-26.139 58.382-58.382 0-32.244-26.139-58.382-58.382-58.382-32.244 0-58.382 26.139-58.382 58.382 0 32.244 26.139 58.382 58.382 58.382z" data-fill-palette-color="accent" fill="#f0f0f0" stroke="transparent"></path></g><g transform="matrix(1,0,0,1,45.07769333247664,30.58445472876881)"><svg viewBox="0 0 36.29466117657137 65.28113838398703" height="65.28113838398703" width="36.29466117657137"><g><svg xmlns="http://www.w3.org/2000/svg" xmlns:xlink="http://www.w3.org/1999/xlink" version="1.1" x="0" y="0" viewBox="27.899999618530273 8.299999237060547 44.19999694824219 79.50001525878906" style="enable-background:new 0 0 100 100;" xml:space="preserve" height="65.28113838398703" width="36.29466117657137" class="icon-x-0" data-fill-palette-color="accent" id="x-0"><path d="M72.1 74.6l-2.2-8.3-1.6 0.4v-3.8c3-5.1 3.2-10.6 3.2-12.3V21.3c0-3.9-3.2-7.1-7.1-7.1s-7.1 3.2-7.1 7.1v0.4c-0.5-0.1-1.1-0.2-1.7-0.2-1.6 0-3.2 0.6-4.4 1.5-1.2-1-2.8-1.5-4.4-1.5-0.6 0-1.1 0.1-1.7 0.2v-6.3c0-3.9-3.2-7.1-7.1-7.1h-1.5c-3.9 0-7.1 3.2-7.1 7.1v26.5c-1 1.2-1.5 2.7-1.5 4.3v5.9c0 4.2 2.6 9.3 6.6 13.1v10.6l-3 0.8 2.2 8.3 0.8-0.2v3.1H38v-4l26.8-7.2v11.2h3.5V75.6L72.1 74.6zM51.9 28.6c0-2 1.6-3.7 3.7-3.7 2 0 3.7 1.6 3.7 3.7v14.7c0 2-1.6 3.7-3.7 3.7-0.2 0-0.5 0-0.7-0.1v-0.7c0-2-1.2-3.8-2.9-4.6L51.9 28.6 51.9 28.6zM43.1 28.6c0-2 1.6-3.7 3.7-3.7 2 0 3.7 1.6 3.7 3.7v12.5c-0.2 0-0.5-0.1-0.7-0.1h-6.6V28.6H43.1zM32.9 15.4c0-2 1.6-3.7 3.7-3.7H38c2 0 3.7 1.6 3.7 3.7v13.2 12.5h-6.6c-0.8 0-1.5 0.2-2.2 0.5V15.4zM31.4 52.1V47v-0.7c0-2 1.6-3.7 3.7-3.7h14.7c2 0 3.7 1.6 3.7 3.7v1.5c0 2-1.6 3.7-3.7 3.7h-6.5V53h6.5c2.6 0 4.7-2 5.1-4.5 0.3 0 0.5 0.1 0.8 0.1 2.8 0 5.1-2.3 5.1-5.1V28.6v-7.3c0-2 1.6-3.7 3.7-3.7s3.7 1.6 3.7 3.7v23.5 5.9c0 5.8-2.9 16.9-13.9 16.9h-5.9C38.3 67.5 31.4 57.5 31.4 52.1zM42.3 81.1l-1.4-5.4 11.6-3.1 1.4 5.5L42.3 81.1zM38 74.9v-9.5c2.5 1.8 5.5 3.1 8.8 3.4l7.3 0.1c4.9 0 8.3-1.9 10.7-4.7v3.5L38 74.9z" fill="#f0f0f0" data-fill-palette-color="accent"></path></svg></g></svg></g></svg></g></svg></g><g></g></svg></g></svg><rect width="395.52" height="205.50459175360444" fill="none" stroke="none" visibility="hidden"></rect></g></svg></g></svg>